<svg xmlns="http://www.w3.org/2000/svg" viewBox="0 0 1600 900" role="img" aria-label="UAE architecture and skyline at sunset">
  <defs>
    <linearGradient id="sky" x1="0" y1="0" x2="1" y2="1">
      <stop offset="0" stop-color="#071426"/>
      <stop offset="0.48" stop-color="#17385c"/>
      <stop offset="1" stop-color="#d8a856"/>
    </linearGradient>
    <linearGradient id="marble" x1="0" y1="0" x2="1" y2="1">
      <stop offset="0" stop-color="#f5ead6"/>
      <stop offset="1" stop-color="#9f7a3e"/>
    </linearGradient>
    <linearGradient id="water" x1="0" y1="0" x2="1" y2="0">
      <stop offset="0" stop-color="#0a1f36"/>
      <stop offset="1" stop-color="#446f88"/>
    </linearGradient>
    <filter id="soft" x="-10%" y="-10%" width="120%" height="120%">
      <feGaussianBlur stdDeviation="8"/>
    </filter>
  </defs>
  <rect width="1600" height="900" fill="url(#sky)"/>
  <circle cx="1260" cy="230" r="115" fill="#f3c66f" opacity="0.55" filter="url(#soft)"/>
  <rect y="610" width="1600" height="290" fill="url(#water)" opacity="0.78"/>
  <g opacity="0.85">
    <rect x="870" y="320" width="70" height="290" fill="#d9e3ea"/>
    <path d="M870 320 Q905 220 940 320Z" fill="#d9e3ea"/>
    <rect x="970" y="260" width="92" height="350" fill="#b8c8d2"/>
    <path d="M970 260 Q1048 185 1062 260Z" fill="#b8c8d2"/>
    <rect x="1090" y="360" width="62" height="250" fill="#e5edf1"/>
    <rect x="1180" y="300" width="76" height="310" fill="#ccdbe3"/>
    <path d="M1180 300 Q1245 235 1256 300Z" fill="#ccdbe3"/>
    <rect x="1280" y="390" width="52" height="220" fill="#edf3f5"/>
  </g>
  <g opacity="0.35" stroke="#f3c66f" stroke-width="3" fill="none">
    <path d="M0 720 C260 655 365 755 610 690 S1040 660 1600 735"/>
    <path d="M0 760 C320 700 430 790 720 735 S1110 710 1600 785"/>
  </g>
  <g fill="url(#marble)">
    <rect x="0" y="0" width="190" height="900" opacity="0.88"/>
    <rect x="250" y="0" width="130" height="900" opacity="0.88"/>
    <rect x="0" y="0" width="510" height="110" opacity="0.92"/>
    <path d="M360 900 H520 V360 C520 205 650 110 800 110 V0 H360Z" opacity="0.82"/>
    <path d="M380 900 H470 V380 C470 275 585 160 800 160 V70 C560 70 380 230 380 380Z" fill="#071426" opacity="0.7"/>
  </g>
  <g stroke="#d6a64d" stroke-width="2" fill="none" opacity="0.55">
    <path d="M62 0v900M118 0v900M288 0v900M338 0v900"/>
    <path d="M31 145h330M31 188h330M31 232h330"/>
  </g>
  <rect width="1600" height="900" fill="#061222" opacity="0.24"/>
</svg>
