<svg xmlns="http://www.w3.org/2000/svg" viewBox="0 0 1600 900" role="img" aria-label="Empty Dubai executive boardroom for global talent recruitment">
  <defs>
    <linearGradient id="room" x1="0" y1="0" x2="1" y2="1">
      <stop offset="0" stop-color="#06111f"/>
      <stop offset="0.6" stop-color="#102b46"/>
      <stop offset="1" stop-color="#c99a45"/>
    </linearGradient>
    <linearGradient id="glass" x1="0" y1="0" x2="0" y2="1">
      <stop offset="0" stop-color="#cfe3ef" stop-opacity="0.8"/>
      <stop offset="1" stop-color="#5b7f95" stop-opacity="0.35"/>
    </linearGradient>
    <linearGradient id="table" x1="0" y1="0" x2="1" y2="1">
      <stop offset="0" stop-color="#0b1424"/>
      <stop offset="1" stop-color="#5d4629"/>
    </linearGradient>
  </defs>
  <rect width="1600" height="900" fill="url(#room)"/>
  <g opacity="0.92">
    <rect x="610" y="90" width="850" height="500" fill="url(#glass)"/>
    <path d="M610 590H1460V640H610Z" fill="#0a1628"/>
    <g fill="#dbe8ef" opacity="0.78">
      <rect x="780" y="305" width="60" height="285"/><path d="M780 305 Q810 230 840 305Z"/>
      <rect x="875" y="250" width="55" height="340"/><path d="M875 250 Q918 190 930 250Z"/>
      <rect x="980" y="165" width="52" height="425"/><path d="M980 165 Q1006 105 1032 165Z"/>
      <rect x="1075" y="285" width="58" height="305"/><path d="M1075 285 Q1110 220 1133 285Z"/>
      <rect x="1180" y="220" width="42" height="370"/><path d="M1180 220 Q1201 145 1222 220Z"/>
      <rect x="1285" y="330" width="62" height="260"/>
    </g>
  </g>
  <rect x="105" y="160" width="400" height="250" rx="8" fill="#081525" stroke="#c89b48" stroke-width="3" opacity="0.72"/>
  <g stroke="#79b5df" stroke-width="5" fill="none" opacity="0.72">
    <path d="M145 345 L205 300 L265 322 L325 250 L385 275 L460 210"/>
    <path d="M145 230 H460M145 280H460M145 330H460"/>
  </g>
  <g fill="#c89b48" opacity="0.8">
    <rect x="165" y="315" width="22" height="30"/><rect x="220" y="285" width="22" height="60"/>
    <rect x="275" y="305" width="22" height="40"/><rect x="330" y="245" width="22" height="100"/>
    <rect x="385" y="265" width="22" height="80"/>
  </g>
  <path d="M260 900 L630 560 H1190 L1510 900Z" fill="url(#table)" opacity="0.95"/>
  <g fill="#081525" stroke="#d5a452" stroke-width="2" opacity="0.9">
    <rect x="440" y="630" width="130" height="78" rx="6"/>
    <rect x="675" y="594" width="135" height="82" rx="6"/>
    <rect x="910" y="596" width="135" height="82" rx="6"/>
    <rect x="1145" y="635" width="130" height="78" rx="6"/>
  </g>
  <g fill="none" stroke="#d5a452" opacity="0.28">
    <path d="M310 890 L675 560M465 900 L770 560M625 900 L865 560M790 900 L960 560M960 900 L1060 560M1130 900 L1160 560"/>
  </g>
  <rect width="1600" height="900" fill="#061222" opacity="0.22"/>
</svg>
