<svg xmlns="http://www.w3.org/2000/svg" viewBox="0 0 1600 900" role="img" aria-label="UAE headquarters lobby and location map">
  <defs>
    <linearGradient id="bg" x1="0" y1="0" x2="1" y2="1">
      <stop offset="0" stop-color="#071424"/>
      <stop offset="0.55" stop-color="#203b55"/>
      <stop offset="1" stop-color="#d0a04b"/>
    </linearGradient>
    <linearGradient id="floor" x1="0" y1="0" x2="1" y2="0">
      <stop offset="0" stop-color="#0b1624"/>
      <stop offset="0.6" stop-color="#d8c3a2"/>
      <stop offset="1" stop-color="#6f512b"/>
    </linearGradient>
    <filter id="glow">
      <feGaussianBlur stdDeviation="6" result="blur"/>
      <feMerge><feMergeNode in="blur"/><feMergeNode in="SourceGraphic"/></feMerge>
    </filter>
  </defs>
  <rect width="1600" height="900" fill="url(#bg)"/>
  <rect x="0" y="610" width="1600" height="290" fill="url(#floor)" opacity="0.74"/>
  <rect x="95" y="135" width="620" height="500" fill="#b7d2df" opacity="0.22" stroke="#d8a64c" stroke-width="3"/>
  <g fill="#dce8ee" opacity="0.7">
    <rect x="180" y="335" width="58" height="300"/><path d="M180 335 Q209 270 238 335Z"/>
    <rect x="270" y="290" width="74" height="345"/><path d="M270 290 Q320 225 344 290Z"/>
    <rect x="380" y="365" width="48" height="270"/>
    <rect x="465" y="255" width="70" height="380"/><path d="M465 255 Q520 190 535 255Z"/>
    <rect x="565" y="390" width="60" height="245"/>
  </g>
  <rect x="920" y="225" width="470" height="320" rx="10" fill="#d7c09a" opacity="0.88"/>
  <path d="M1010 330 L1066 305 L1125 335 L1190 303 L1280 355 L1298 420 L1215 450 L1150 430 L1070 468 L1000 425Z" fill="#0e1e35" opacity="0.75"/>
  <path d="M1205 350 C1205 318 1255 318 1255 350 C1255 388 1230 405 1230 438 C1230 405 1205 388 1205 350Z" fill="#d6a64d" filter="url(#glow)"/>
  <circle cx="1230" cy="350" r="13" fill="#fff"/>
  <rect x="860" y="590" width="585" height="115" rx="4" fill="#071424" stroke="#d6a64d" stroke-width="4"/>
  <g stroke="#d6a64d" stroke-width="2" opacity="0.32">
    <path d="M910 225v480M970 225v480M1030 225v480M1090 225v480M1150 225v480M1210 225v480M1270 225v480M1330 225v480"/>
    <path d="M920 285h470M920 345h470M920 405h470M920 465h470"/>
  </g>
  <g fill="#d6a64d" opacity="0.25">
    <circle cx="145" cy="715" r="6"/><circle cx="255" cy="755" r="4"/><circle cx="420" cy="690" r="5"/>
    <circle cx="585" cy="790" r="4"/><circle cx="760" cy="720" r="5"/><circle cx="1510" cy="770" r="5"/>
  </g>
  <rect width="1600" height="900" fill="#061222" opacity="0.2"/>
</svg>
