<svg xmlns="http://www.w3.org/2000/svg" viewBox="0 0 1200 760" role="img" aria-label="Dubai technology skyline and orbital connectivity">
  <defs>
    <linearGradient id="bg" x1="0" y1="0" x2="1" y2="1"><stop offset="0" stop-color="#071426"/><stop offset="0.55" stop-color="#0d3b63"/><stop offset="1" stop-color="#c99a45"/></linearGradient>
    <linearGradient id="road" x1="0" y1="0" x2="1" y2="0"><stop offset="0" stop-color="#071426"/><stop offset="1" stop-color="#315878"/></linearGradient>
  </defs>
  <rect width="1200" height="760" fill="url(#bg)"/>
  <circle cx="970" cy="160" r="86" fill="#f2c46a" opacity="0.45"/>
  <g fill="#dce9ef" opacity="0.82">
    <rect x="575" y="300" width="45" height="270"/><path d="M575 300 Q598 230 620 300Z"/>
    <rect x="650" y="230" width="62" height="340"/><path d="M650 230 Q695 165 712 230Z"/>
    <rect x="748" y="145" width="42" height="425"/><path d="M748 145 Q769 82 790 145Z"/>
    <rect x="830" y="310" width="56" height="260"/>
    <rect x="918" y="260" width="42" height="310"/><path d="M918 260 Q938 200 960 260Z"/>
  </g>
  <path d="M0 640 C230 565 385 655 560 600 S875 565 1200 650 V760 H0Z" fill="url(#road)" opacity="0.9"/>
  <g stroke="#87d4ff" fill="none" opacity="0.65">
    <path d="M130 245 C310 95 505 390 725 220 S1050 150 1135 310" stroke-width="4"/>
    <circle cx="305" cy="178" r="8" fill="#87d4ff"/>
    <circle cx="725" cy="220" r="8" fill="#87d4ff"/>
    <circle cx="1035" cy="165" r="8" fill="#87d4ff"/>
  </g>
  <path d="M170 460 L285 500 L170 535 L205 500Z" fill="#eef7fa" opacity="0.86"/>
  <path d="M145 502 H285" stroke="#eef7fa" stroke-width="8" opacity="0.86"/>
  <g stroke="#d6a64d" stroke-width="3" opacity="0.55">
    <path d="M260 610 H965"/>
    <path d="M310 585 H1015"/>
    <path d="M380 662 H1085"/>
  </g>
  <rect width="1200" height="760" fill="#061222" opacity="0.18"/>
</svg>
