<svg xmlns="http://www.w3.org/2000/svg" viewBox="0 0 1600 900" role="img" aria-label="UAE economy aviation trade energy and market data landscape">
  <defs>
    <linearGradient id="night" x1="0" y1="0" x2="1" y2="1">
      <stop offset="0" stop-color="#04101f"/>
      <stop offset="0.55" stop-color="#0b3a61"/>
      <stop offset="1" stop-color="#c8913c"/>
    </linearGradient>
    <linearGradient id="solar" x1="0" y1="0" x2="1" y2="1">
      <stop offset="0" stop-color="#1e5d85"/>
      <stop offset="1" stop-color="#06111f"/>
    </linearGradient>
  </defs>
  <rect width="1600" height="900" fill="url(#night)"/>
  <g fill="#d8e8ef" opacity="0.82">
    <rect x="710" y="330" width="55" height="285"/><path d="M710 330 Q738 260 765 330Z"/>
    <rect x="790" y="260" width="72" height="355"/><path d="M790 260 Q845 185 862 260Z"/>
    <rect x="900" y="145" width="50" height="470"/><path d="M900 145 Q925 72 950 145Z"/>
    <rect x="990" y="310" width="70" height="305"/>
    <rect x="1090" y="230" width="45" height="385"/><path d="M1090 230 Q1112 160 1135 230Z"/>
  </g>
  <g stroke="#6fc6ff" stroke-width="3" fill="none" opacity="0.44">
    <path d="M60 220 C210 145 330 330 470 240 S710 170 860 240"/>
    <path d="M70 455 L160 390 L250 425 L345 320 L455 360 L560 280"/>
    <path d="M70 510 H575M70 570H575M70 630H575"/>
  </g>
  <g fill="#d6a64d" opacity="0.8">
    <rect x="88" y="500" width="26" height="80"/><rect x="150" y="470" width="26" height="110"/>
    <rect x="212" y="515" width="26" height="65"/><rect x="274" y="430" width="26" height="150"/>
    <rect x="336" y="455" width="26" height="125"/><rect x="398" y="390" width="26" height="190"/>
  </g>
  <g transform="translate(1100 590)" opacity="0.88">
    <rect x="0" y="0" width="86" height="54" fill="#c96d2c"/>
    <rect x="92" y="0" width="86" height="54" fill="#1f6a93"/>
    <rect x="184" y="0" width="86" height="54" fill="#d6a64d"/>
    <rect x="46" y="-60" width="86" height="54" fill="#d6a64d"/>
    <rect x="138" y="-60" width="86" height="54" fill="#c96d2c"/>
    <rect x="230" y="-60" width="86" height="54" fill="#1f6a93"/>
    <path d="M-40 -15 L40 -165 M110 -15 L190 -165 M260 -15 L340 -165" stroke="#d6a64d" stroke-width="8" fill="none"/>
  </g>
  <g opacity="0.8">
    <path d="M70 760 L560 665 L1040 760 Z" fill="url(#solar)"/>
    <g stroke="#84c8e8" stroke-width="2" opacity="0.55">
      <path d="M110 750 L560 665M210 750 L620 685M320 750 L720 705M430 750 L820 725M540 750 L920 745"/>
      <path d="M140 725 H950M210 705H860M290 690H770"/>
    </g>
  </g>
  <path d="M150 250 L345 285 L150 320 L205 285Z" fill="#edf5f7" opacity="0.82"/>
  <path d="M126 288 H345" stroke="#edf5f7" stroke-width="10" opacity="0.82"/>
  <g stroke="#d6a64d" stroke-width="2" fill="none" opacity="0.25">
    <circle cx="360" cy="260" r="170"/><circle cx="360" cy="260" r="105"/>
    <path d="M190 260H530M360 90V430"/>
  </g>
  <rect width="1600" height="900" fill="#061222" opacity="0.22"/>
</svg>
