<svg xmlns="http://www.w3.org/2000/svg" viewBox="0 0 1200 760" role="img" aria-label="Dubai economic incentives and business support">
  <defs>
    <linearGradient id="bg" x1="0" y1="0" x2="1" y2="1"><stop offset="0" stop-color="#071426"/><stop offset="0.55" stop-color="#174160"/><stop offset="1" stop-color="#d5a452"/></linearGradient>
  </defs>
  <rect width="1200" height="760" fill="url(#bg)"/>
  <g fill="#dce8ef" opacity="0.76">
    <rect x="120" y="360" width="62" height="250"/>
    <rect x="220" y="290" width="78" height="320"/><path d="M220 290 Q270 220 298 290Z"/>
    <rect x="345" y="335" width="55" height="275"/>
    <rect x="445" y="240" width="72" height="370"/><path d="M445 240 Q498 175 517 240Z"/>
  </g>
  <rect x="650" y="185" width="360" height="290" rx="12" fill="#fff7e5" opacity="0.9"/>
  <path d="M700 410 L760 350 L820 382 L890 275 L960 318" fill="none" stroke="#0e1e35" stroke-width="11" stroke-linecap="round" stroke-linejoin="round"/>
  <path d="M705 410 L765 350 L825 382 L895 275 L965 318" fill="none" stroke="#d6a64d" stroke-width="5" stroke-linecap="round" stroke-linejoin="round"/>
  <g fill="#d6a64d">
    <circle cx="760" cy="350" r="14"/><circle cx="890" cy="275" r="14"/><circle cx="960" cy="318" r="14"/>
  </g>
  <g fill="#0e1e35" opacity="0.72">
    <rect x="690" y="500" width="82" height="60" rx="6"/>
    <rect x="795" y="485" width="82" height="75" rx="6"/>
    <rect x="900" y="455" width="82" height="105" rx="6"/>
  </g>
  <path d="M0 625 C200 570 395 650 575 605 S895 570 1200 635 V760 H0Z" fill="#071426" opacity="0.42"/>
</svg>
