<svg xmlns="http://www.w3.org/2000/svg" viewBox="0 0 1200 760" role="img" aria-label="Dubai Loop underground mobility route">
  <defs>
    <linearGradient id="bg" x1="0" y1="0" x2="1" y2="1"><stop offset="0" stop-color="#06111f"/><stop offset="0.55" stop-color="#173656"/><stop offset="1" stop-color="#c89b48"/></linearGradient>
    <linearGradient id="tunnel" x1="0" y1="0" x2="1" y2="1"><stop offset="0" stop-color="#0b1628"/><stop offset="1" stop-color="#456784"/></linearGradient>
  </defs>
  <rect width="1200" height="760" fill="url(#bg)"/>
  <g fill="#dce8ee" opacity="0.78">
    <rect x="655" y="270" width="50" height="280"/><path d="M655 270 Q680 205 705 270Z"/>
    <rect x="735" y="195" width="62" height="355"/><path d="M735 195 Q780 135 797 195Z"/>
    <rect x="830" y="315" width="55" height="235"/>
    <rect x="930" y="245" width="48" height="305"/>
  </g>
  <ellipse cx="540" cy="615" rx="560" ry="165" fill="url(#tunnel)" opacity="0.96"/>
  <ellipse cx="540" cy="615" rx="390" ry="105" fill="#06111f" opacity="0.96"/>
  <g stroke="#d6a64d" stroke-width="6" fill="none">
    <path d="M155 615 C320 505 470 710 645 610 S925 545 1050 610"/>
  </g>
  <g fill="#f2f7fa">
    <rect x="312" y="575" width="98" height="38" rx="19"/>
    <rect x="720" y="590" width="120" height="42" rx="21"/>
  </g>
  <g fill="#d6a64d">
    <circle cx="155" cy="615" r="11"/><circle cx="645" cy="610" r="11"/><circle cx="1050" cy="610" r="11"/>
  </g>
  <rect width="1200" height="760" fill="#061222" opacity="0.18"/>
</svg>
