<svg xmlns="http://www.w3.org/2000/svg" viewBox="0 0 1200 760" role="img" aria-label="Al Maktoum airport expansion and logistics corridor">
  <defs>
    <linearGradient id="sky" x1="0" y1="0" x2="1" y2="1"><stop offset="0" stop-color="#071426"/><stop offset="0.52" stop-color="#245574"/><stop offset="1" stop-color="#d8a64d"/></linearGradient>
    <linearGradient id="runway" x1="0" y1="0" x2="1" y2="0"><stop offset="0" stop-color="#252d36"/><stop offset="1" stop-color="#707d86"/></linearGradient>
  </defs>
  <rect width="1200" height="760" fill="url(#sky)"/>
  <rect y="525" width="1200" height="235" fill="url(#runway)"/>
  <g fill="#dce8ef" opacity="0.76">
    <rect x="820" y="280" width="60" height="245"/><path d="M820 280 Q850 210 880 280Z"/>
    <rect x="910" y="340" width="72" height="185"/>
    <rect x="1010" y="255" width="48" height="270"/><path d="M1010 255 Q1034 190 1058 255Z"/>
  </g>
  <path d="M120 365 L385 430 L120 490 L205 430Z" fill="#f3f7f8"/>
  <path d="M82 434 H385" stroke="#f3f7f8" stroke-width="18"/>
  <path d="M250 430 L160 350 M250 430 L160 510" stroke="#f3f7f8" stroke-width="16" stroke-linecap="round"/>
  <g stroke="#f4d58a" stroke-width="6" opacity="0.85">
    <path d="M210 640 H1010"/>
    <path d="M170 690 H1080"/>
  </g>
  <g fill="#d6a64d" opacity="0.9">
    <rect x="655" y="575" width="95" height="55"/><rect x="758" y="575" width="95" height="55"/><rect x="861" y="575" width="95" height="55"/>
    <rect x="710" y="510" width="95" height="55"/><rect x="813" y="510" width="95" height="55"/>
  </g>
  <rect width="1200" height="760" fill="#061222" opacity="0.16"/>
</svg>
